<svg width="26" height="18" viewBox="0 0 26 26" fill="none" xmlns="http://www.w3.org/2000/svg">
<path d="M12.1083 22.7473L5.8383 19.142C5.44119 18.9121 5.13271 18.6091 4.91284 18.2328C4.69297 17.8566 4.58345 17.4386 4.58429 16.9788V9.7683C4.58429 9.3085 4.69422 8.8905 4.91409 8.51429C5.13396 8.13809 5.44203 7.83504 5.8383 7.60514L12.1083 3.99987C12.5054 3.76997 12.9234 3.65501 13.3623 3.65501C13.8012 3.65501 14.2192 3.76997 14.6163 3.99987L20.8864 7.60514C21.2835 7.83504 21.592 8.13809 21.8118 8.51429C22.0317 8.8905 22.1412 9.3085 22.1404 9.7683V16.9788C22.1404 17.4386 22.0305 17.8566 21.8106 18.2328C21.5907 18.6091 21.2826 18.9121 20.8864 19.142L14.6163 22.7473C14.2192 22.9772 13.8012 23.0921 13.3623 23.0921C12.9234 23.0921 12.5054 22.9772 12.1083 22.7473ZM12.1083 19.8631V14.0946L7.0923 11.1791V16.9788L12.1083 19.8631ZM14.6163 19.8631L19.6324 16.9788V11.1791L14.6163 14.0946V19.8631ZM0.822268 7.10353V3.34151C0.822268 2.65181 1.06805 2.06117 1.55962 1.5696C2.05119 1.07803 2.64141 0.832662 3.33028 0.833498H7.0923V3.34151H3.33028V7.10353H0.822268ZM7.0923 25.9136H3.33028C2.64058 25.9136 2.04994 25.6679 1.55837 25.1763C1.0668 24.6847 0.821432 24.0945 0.822268 23.4056V19.6436H3.33028V23.4056H7.0923V25.9136ZM19.6324 25.9136V23.4056H23.3944V19.6436H25.9024V23.4056C25.9024 24.0953 25.6566 24.686 25.1651 25.1775C24.6735 25.6691 24.0833 25.9145 23.3944 25.9136H19.6324ZM23.3944 7.10353V3.34151H19.6324V0.833498H23.3944C24.0841 0.833498 24.6747 1.07928 25.1663 1.57085C25.6579 2.06243 25.9032 2.65264 25.9024 3.34151V7.10353H23.3944ZM13.3623 11.9315L18.3157 9.01589L13.3623 6.16303L8.40901 9.01589L13.3623 11.9315Z" fill="currentcolor"/>
</svg>
