<svg width="24" height="23" viewBox="0 0 24 23" fill="none" xmlns="http://www.w3.org/2000/svg">
<path d="M10.9332 19.6965L10.9317 19.6952C7.82208 16.8754 5.32156 14.6025 3.58676 12.4801C1.86296 10.3712 1 8.53324 1 6.6C1 3.44548 3.45509 1 6.6 1C8.3857 1 10.1161 1.83646 11.2412 3.14728L12 4.03143L12.7588 3.14728C13.8839 1.83646 15.6143 1 17.4 1C20.5449 1 23 3.44548 23 6.6C23 8.53324 22.137 10.3712 20.4132 12.4801C18.6784 14.6025 16.1779 16.8754 13.0683 19.6952L13.0668 19.6965L12 20.6677L10.9332 19.6965Z" fill="currentcolor" stroke="white" stroke-width="2"/>
</svg>
