<svg width="12" height="14" viewBox="0 0 12 14" fill="none" xmlns="http://www.w3.org/2000/svg">
<path d="M3.75 1.55704C3.55109 1.55704 3.36032 1.63896 3.21967 1.78478C3.07902 1.9306 3 2.12838 3 2.3346C3 2.54083 3.07902 2.7386 3.21967 2.88443C3.36032 3.03025 3.55109 3.11217 3.75 3.11217C3.94891 3.11217 4.13968 3.03025 4.28033 2.88443C4.42098 2.7386 4.5 2.54083 4.5 2.3346C4.5 2.12838 4.42098 1.9306 4.28033 1.78478C4.13968 1.63896 3.94891 1.55704 3.75 1.55704ZM1.6275 1.55704C1.78245 1.10175 2.0698 0.707495 2.44995 0.428625C2.8301 0.149756 3.28432 0 3.75 0C4.21568 0 4.6699 0.149756 5.05005 0.428625C5.4302 0.707495 5.71755 1.10175 5.8725 1.55704H11.25C11.4489 1.55704 11.6397 1.63896 11.7803 1.78478C11.921 1.9306 12 2.12838 12 2.3346C12 2.54083 11.921 2.7386 11.7803 2.88443C11.6397 3.03025 11.4489 3.11217 11.25 3.11217H5.8725C5.71755 3.56746 5.4302 3.96171 5.05005 4.24058C4.6699 4.51945 4.21568 4.66921 3.75 4.66921C3.28432 4.66921 2.8301 4.51945 2.44995 4.24058C2.0698 3.96171 1.78245 3.56746 1.6275 3.11217H0.75C0.551088 3.11217 0.360322 3.03025 0.21967 2.88443C0.0790178 2.7386 0 2.54083 0 2.3346C0 2.12838 0.0790178 1.9306 0.21967 1.78478C0.360322 1.63896 0.551088 1.55704 0.75 1.55704H1.6275ZM8.25 6.22243C8.05109 6.22243 7.86032 6.30436 7.71967 6.45018C7.57902 6.596 7.5 6.79378 7.5 7C7.5 7.20622 7.57902 7.404 7.71967 7.54982C7.86032 7.69564 8.05109 7.77757 8.25 7.77757C8.44891 7.77757 8.63968 7.69564 8.78033 7.54982C8.92098 7.404 9 7.20622 9 7C9 6.79378 8.92098 6.596 8.78033 6.45018C8.63968 6.30436 8.44891 6.22243 8.25 6.22243ZM6.1275 6.22243C6.28245 5.76714 6.5698 5.37289 6.94995 5.09402C7.3301 4.81515 7.78432 4.6654 8.25 4.6654C8.71568 4.6654 9.1699 4.81515 9.55005 5.09402C9.9302 5.37289 10.2175 5.76714 10.3725 6.22243H11.25C11.4489 6.22243 11.6397 6.30436 11.7803 6.45018C11.921 6.596 12 6.79378 12 7C12 7.20622 11.921 7.404 11.7803 7.54982C11.6397 7.69564 11.4489 7.77757 11.25 7.77757H10.3725C10.2175 8.23286 9.9302 8.62711 9.55005 8.90598C9.1699 9.18485 8.71568 9.3346 8.25 9.3346C7.78432 9.3346 7.3301 9.18485 6.94995 8.90598C6.5698 8.62711 6.28245 8.23286 6.1275 7.77757H0.75C0.551088 7.77757 0.360322 7.69564 0.21967 7.54982C0.0790178 7.404 0 7.20622 0 7C0 6.79378 0.0790178 6.596 0.21967 6.45018C0.360322 6.30436 0.551088 6.22243 0.75 6.22243H6.1275ZM3.75 10.8878C3.55109 10.8878 3.36032 10.9698 3.21967 11.1156C3.07902 11.2614 3 11.4592 3 11.6654C3 11.8716 3.07902 12.0694 3.21967 12.2152C3.36032 12.361 3.55109 12.443 3.75 12.443C3.94891 12.443 4.13968 12.361 4.28033 12.2152C4.42098 12.0694 4.5 11.8716 4.5 11.6654C4.5 11.4592 4.42098 11.2614 4.28033 11.1156C4.13968 10.9698 3.94891 10.8878 3.75 10.8878ZM1.6275 10.8878C1.78245 10.4325 2.0698 10.0383 2.44995 9.75942C2.8301 9.48055 3.28432 9.33079 3.75 9.33079C4.21568 9.33079 4.6699 9.48055 5.05005 9.75942C5.4302 10.0383 5.71755 10.4325 5.8725 10.8878H11.25C11.4489 10.8878 11.6397 10.9698 11.7803 11.1156C11.921 11.2614 12 11.4592 12 11.6654C12 11.8716 11.921 12.0694 11.7803 12.2152C11.6397 12.361 11.4489 12.443 11.25 12.443H5.8725C5.71755 12.8983 5.4302 13.2925 5.05005 13.5714C4.6699 13.8502 4.21568 14 3.75 14C3.28432 14 2.8301 13.8502 2.44995 13.5714C2.0698 13.2925 1.78245 12.8983 1.6275 12.443H0.75C0.551088 12.443 0.360322 12.361 0.21967 12.2152C0.0790178 12.0694 0 11.8716 0 11.6654C0 11.4592 0.0790178 11.2614 0.21967 11.1156C0.360322 10.9698 0.551088 10.8878 0.75 10.8878H1.6275Z" fill="black"/>
</svg>
