<svg width="651" height="651" viewBox="0 0 98 98" fill="none" xmlns="http://www.w3.org/2000/svg">
<circle cx="49" cy="49" r="46" fill="white" stroke="black" stroke-width="2"/>
<path d="M47.6968 67.2232L47.6932 67.22C42.341 62.3666 38.1002 58.5093 35.1682 54.9222C32.2637 51.3687 30.9058 48.3869 30.9058 45.3268C30.9058 40.3469 34.7673 36.5 39.7326 36.5C42.5602 36.5 45.3155 37.8293 47.1029 39.9118L49 42.1222L50.8971 39.9118C52.6844 37.8293 55.4397 36.5 58.2674 36.5C63.2326 36.5 67.0942 40.3469 67.0942 45.3268C67.0942 48.3869 65.7363 51.3687 62.8317 54.9222C59.8997 58.5093 55.6589 62.3666 50.3068 67.22L50.3032 67.2232L49 68.4096L47.6968 67.2232Z" fill="#FF0000" stroke="black" stroke-width="2"/>
</svg>
