<svg width="20" height="20" viewBox="0 0 33 31" fill="white" xmlns="http://www.w3.org/2000/svg">
<path d="M12.9179 28.7683C11.8587 28.7683 11 27.9097 11 26.8504C11 25.7912 11.8587 24.9326 12.9179 24.9326H31.0821C32.1413 24.9326 33 25.7912 33 26.8504C33 27.9097 32.1413 28.7683 31.0821 28.7683H12.9179ZM12.9179 17.261C11.8587 17.261 11 16.4023 11 15.3431C11 14.2839 11.8587 13.4252 12.9179 13.4252H31.0821C32.1413 13.4252 33 14.2839 33 15.3431C33 16.4023 32.1413 17.261 31.0821 17.261H12.9179ZM12.9179 5.75367C11.8587 5.75367 11 4.895 11 3.83578C11 2.77656 11.8587 1.91789 12.9179 1.91789H31.0821C32.1413 1.91789 33 2.77656 33 3.83578C33 4.895 32.1413 5.75367 31.0821 5.75367H12.9179ZM3.66667 30.6862C2.65834 30.6862 1.79484 30.3103 1.07617 29.5585C0.357503 28.8067 -0.00121911 27.904 3.11262e-06 26.8504C3.11262e-06 25.7956 0.359336 24.8923 1.078 24.1405C1.79667 23.3887 2.65956 23.0134 3.66667 23.0147C4.675 23.0147 5.5385 23.3906 6.25717 24.1424C6.97584 24.8942 7.33456 25.7969 7.33334 26.8504C7.33334 27.9053 6.974 28.8086 6.25534 29.5604C5.53667 30.3122 4.67378 30.6875 3.66667 30.6862ZM3.66667 19.1789C2.65834 19.1789 1.79484 18.803 1.07617 18.0512C0.357503 17.2994 -0.00121911 16.3967 3.11262e-06 15.3431C3.11262e-06 14.2883 0.359336 13.3849 1.078 12.6331C1.79667 11.8813 2.65956 11.5061 3.66667 11.5073C4.675 11.5073 5.5385 11.8832 6.25717 12.6351C6.97584 13.3869 7.33456 14.2896 7.33334 15.3431C7.33334 16.398 6.974 17.3013 6.25534 18.0531C5.53667 18.8049 4.67378 19.1802 3.66667 19.1789ZM3.66667 7.67156C2.65834 7.67156 1.79484 7.29565 1.07617 6.54384C0.357503 5.79203 -0.00121911 4.88934 3.11262e-06 3.83578C3.11262e-06 2.78094 0.359336 1.87762 1.078 1.1258C1.79667 0.373991 2.65956 -0.00127534 3.66667 3.25618e-06C4.675 3.25618e-06 5.5385 0.375909 6.25717 1.12772C6.97584 1.87953 7.33456 2.78222 7.33334 3.83578C7.33334 4.89062 6.974 5.79395 6.25534 6.54576C5.53667 7.29757 4.67378 7.67284 3.66667 7.67156Z" fill="currentcolor"/>
</svg>
