<svg width="20" height="20" viewBox="0 0 30 30" fill="none" xmlns="http://www.w3.org/2000/svg">
<path d="M19.3262 5.02865V28M10.6879 24.9714V2.07027M10.6598 2L2.52138 4.77568C2.36779 4.81685 2.2327 4.90872 2.1381 5.03632C2.0435 5.16392 1.99497 5.31973 2.00041 5.47838V27.2622C2.00041 27.4485 2.07459 27.6273 2.20661 27.759C2.33864 27.8908 2.51771 27.9649 2.70443 27.9649H2.93675L10.6809 24.9714L19.3402 28L27.4786 25.1892C27.6322 25.148 27.7673 25.0561 27.8619 24.9285C27.9565 24.8009 28.005 24.6451 27.9996 24.4865V2.7027C27.9996 2.51633 27.9254 2.3376 27.7934 2.20582C27.6614 2.07403 27.4823 2 27.2956 2L27.0633 2.04919L19.3191 4.99351L10.6598 2Z" stroke="currentcolor" stroke-width="4" stroke-linecap="round" stroke-linejoin="round"/>
<path d="M19.3262 5.02865V28M10.6879 24.9714V2.07027M10.6598 2L2.52138 4.77568C2.36779 4.81685 2.2327 4.90872 2.1381 5.03632C2.0435 5.16392 1.99497 5.31973 2.00041 5.47838V27.2622C2.00041 27.4485 2.07459 27.6273 2.20661 27.759C2.33864 27.8908 2.51771 27.9649 2.70443 27.9649H2.93675L10.6809 24.9714L19.3402 28L27.4786 25.1892C27.6322 25.148 27.7673 25.0561 27.8619 24.9285C27.9565 24.8009 28.005 24.6451 27.9996 24.4865V2.7027C27.9996 2.51633 27.9254 2.3376 27.7934 2.20582C27.6614 2.07403 27.4823 2 27.2956 2L27.0633 2.04919L19.3191 4.99351L10.6598 2Z" stroke="white" stroke-opacity="0.2" stroke-width="4" stroke-linecap="round" stroke-linejoin="round"/>
</svg>
