<svg width="25" height="20" viewBox="0 0 25 27" fill="none" xmlns="http://www.w3.org/2000/svg">
<path d="M24.5032 18.4567V8.71883C24.5032 7.49736 23.8603 6.37767 22.8113 5.7839L14.3517 0.897995C13.8272 0.592625 13.252 0.439941 12.6598 0.439941C12.0676 0.439941 11.4924 0.592625 10.9679 0.897995L2.50832 5.76693C1.45933 6.37767 0.816406 7.49736 0.816406 8.71883V18.4567C0.816406 19.6782 1.45933 20.7979 2.50832 21.3916L10.9679 26.2776C11.4924 26.5829 12.0676 26.7356 12.6598 26.7356C13.252 26.7356 13.8272 26.5829 14.3517 26.2776L22.8113 21.3916C23.8603 20.7979 24.5032 19.6782 24.5032 18.4567ZM11.6148 23.2757L3.25475 18.7777V9.43583L11.6148 14.2798V23.2757ZM12.6598 11.6198L4.6481 7.35985L12.6598 2.86191L20.6715 7.35985L12.6598 11.6198ZM22.0649 19.4697L14.0532 23.6216V13.9338L22.0649 9.43583V19.4697Z" fill="currentcolor"/>
</svg>
