<svg width="20" height="20" viewBox="0 0 36 36" fill="none" xmlns="http://www.w3.org/2000/svg">
<path d="M33.2 36L20.6 23.4C19.6 24.2 18.45 24.8333 17.15 25.3C15.85 25.7667 14.4667 26 13 26C9.36667 26 6.292 24.7413 3.776 22.224C1.26 19.7067 0.00133333 16.632 0 13C0 9.36667 1.25867 6.292 3.776 3.776C6.29333 1.26 9.368 0.00133333 13 0C16.6333 0 19.708 1.25867 22.224 3.776C24.74 6.29333 25.9987 9.368 26 13C26 14.4667 25.7667 15.85 25.3 17.15C24.8333 18.45 24.2 19.6 23.4 20.6L36 33.2L33.2 36ZM13 22C15.5 22 17.6253 21.1247 19.376 19.374C21.1267 17.6233 22.0013 15.4987 22 13C22 10.5 21.1247 8.37467 19.374 6.624C17.6233 4.87333 15.4987 3.99867 13 4C10.5 4 8.37467 4.87533 6.624 6.626C4.87333 8.37667 3.99867 10.5013 4 13C4 15.5 4.87533 17.6253 6.626 19.376C8.37667 21.1267 10.5013 22.0013 13 22Z" fill="currentcolor"/>
</svg>
