<svg width="30 " height="20" viewBox="0 0 36 26" fill="none" xmlns="http://www.w3.org/2000/svg">
<path d="M2.04102 9.64359C2.04102 8.79894 2.37865 7.98887 2.97965 7.39161C3.58064 6.79435 4.39577 6.45881 5.2457 6.45881H30.8832C31.7331 6.45881 32.5482 6.79435 33.1492 7.39161C33.7502 7.98887 34.0879 8.79894 34.0879 9.64359V20.7903C34.0879 21.635 33.7502 22.445 33.1492 23.0423C32.5482 23.6396 31.7331 23.9751 30.8832 23.9751H24.6853C24.1319 23.9751 23.5879 23.8327 23.1064 23.5617C22.6248 23.2908 22.222 22.9005 21.9373 22.4289L19.4377 18.2887C19.2952 18.0532 19.0939 17.8584 18.8532 17.7232C18.6126 17.5879 18.3409 17.5169 18.0644 17.5169C17.788 17.5169 17.5163 17.5879 17.2756 17.7232C17.035 17.8584 16.8337 18.0532 16.6912 18.2887L14.1916 22.4289C13.9069 22.9005 13.5041 23.2908 13.0225 23.5617C12.5409 23.8327 11.997 23.9751 11.4436 23.9751H5.2457C4.39577 23.9751 3.58064 23.6396 2.97965 23.0423C2.37865 22.445 2.04102 21.635 2.04102 20.7903V9.64359ZM4.94606 4.51769C5.53122 3.64552 6.32393 2.93036 7.25387 2.43563C8.18382 1.94091 9.22225 1.68192 10.2771 1.68164H25.8486C26.9037 1.68166 27.9425 1.94052 28.8727 2.43526C29.803 2.92999 30.5959 3.6453 31.1812 4.51769L32.4855 6.45881H3.64336L4.94606 4.51769Z" stroke="currentcolor" stroke-width="2.78668" stroke-linecap="round" stroke-linejoin="round"/>
</svg>
